<svg id="Layer_1" data-name="Layer 1" xmlns="http://www.w3.org/2000/svg" xmlns:xlink="http://www.w3.org/1999/xlink" viewBox="0 0 512 512"><defs><style>.cls-1{fill:#f3efee;fill-rule:evenodd;}.cls-2{fill:url(#linear-gradient);}</style><linearGradient id="linear-gradient" x1="123.3" y1="139.1" x2="391.87" y2="407.67" gradientUnits="userSpaceOnUse"><stop offset="0.16" stop-color="#3a7cec"/><stop offset="1" stop-color="#3aa2ec"/></linearGradient></defs><path class="cls-1" d="M184.9,382.76c62.51,0,113.49-51,113.49-113.48s-51-113.49-113.49-113.49-113.48,51-113.48,113.49S122.4,382.76,184.9,382.76Z"/><path class="cls-2" d="M276.53,170.18c2.48-10.68,7.05-18.13,14.68-26.35a56.55,56.55,0,0,1,18.61-12.41,59.19,59.19,0,0,1,42.45-1A55.93,55.93,0,0,1,371,141.67a52.16,52.16,0,0,1,12.3,16.57,50,50,0,0,1,4.7,18.9,49.1,49.1,0,0,1-2.84,19,50,50,0,0,1-10.3,17,8.79,8.79,0,0,0-2.15,4.55,8.57,8.57,0,0,0,.73,5,9.11,9.11,0,0,0,3.37,3.86,9.9,9.9,0,0,0,5,1.55,74.22,74.22,0,0,1,27.27,6.63A72,72,0,0,1,430.88,250a68.43,68.43,0,0,1,14.34,21.82A65.14,65.14,0,0,1,450.06,298a64.29,64.29,0,0,1-6.1,26.23,66.91,66.91,0,0,1-15.5,21.08A70.2,70.2,0,0,1,406,359.16a72.6,72.6,0,0,1-53.82-.84A68.55,68.55,0,0,1,330.65,344a64.89,64.89,0,0,1-14.26-20.84A61.93,61.93,0,0,1,311.46,298a78.38,78.38,0,0,1,.85-9.79,134.22,134.22,0,0,0,1.59-18.89c-.1-18.62-2.91-32.66-10.1-50-7.46-16.5-15.51-28.09-28.55-41-13.45-12.64-25.52-20.51-42.76-27.83-18.18-7.13-33-10-52.63-10.31-19.66.26-34.49,3.06-52.69,10.15-17.3,7.32-29.4,15.15-42.87,27.82-13,13-21.12,24.59-28.46,41.18-7,17.35-9.75,31.42-9.44,50A116.17,116.17,0,0,0,48.77,289,118.52,118.52,0,0,0,59.09,318c8.23,15.46,16.74,26.13,30.31,37.64,13.54,10.82,25.49,17.34,42.28,22.51,86.09,19.86,51.1,3.39,6.57-14.82a113.75,113.75,0,0,1-32.77-23A102.93,102.93,0,0,1,83.77,308a96.72,96.72,0,0,1-7.72-38.73,95.66,95.66,0,0,1,8.3-38.49,99.74,99.74,0,0,1,22.18-31.49,105.06,105.06,0,0,1,32.88-21.42c.41-.26,2.61-1,3.22-1.26a110.15,110.15,0,0,1,78,.55,106,106,0,0,1,33.69,21.05,101.25,101.25,0,0,1,23.2,31.7,97,97,0,0,1,9.14,39.36,114.07,114.07,0,0,1-.8,15.46,97.28,97.28,0,0,0-.71,13.22,84.49,84.49,0,0,0,8,34.56,87.87,87.87,0,0,0,20.45,27.73,91.8,91.8,0,0,0,29.65,18.19,93.91,93.91,0,0,0,35.63,6,92.25,92.25,0,0,0,34.93-7.62,88.57,88.57,0,0,0,27.86-19,83.41,83.41,0,0,0,18.1-27.3A79.37,79.37,0,0,0,465.61,298a78,78,0,0,0-7.53-31.15,80.75,80.75,0,0,0-18.36-24.9,84,84,0,0,0-26.28-16.47,85.3,85.3,0,0,0-31.36-5.93.58.58,0,0,1-.32-.07c-.11,0-.19-.18-.24-.23s-.06-.26-.07-.34.12-.33.12-.33a57.18,57.18,0,0,0,10.77-20.19A55.89,55.89,0,0,0,388,156.1a57.68,57.68,0,0,0-14.26-17.34,59.78,59.78,0,0,0-20.45-11.09,62.39,62.39,0,0,0-44,2.59,58.66,58.66,0,0,0-18.54,13.15C283.09,151.77,279.07,159.36,276.53,170.18Z"/></svg>