<svg id="Layer_1" data-name="Layer 1" xmlns="http://www.w3.org/2000/svg" xmlns:xlink="http://www.w3.org/1999/xlink" viewBox="0 0 450.23 89.21"><defs><style>.cls-1{fill:#f3efee;fill-rule:evenodd;}.cls-2{fill:url(#linear-gradient);}.cls-3{fill:#2f4858;}.cls-4{fill:#415d6d;}</style><linearGradient id="linear-gradient" x1="25.98" y1="5.42" x2="116.71" y2="96.14" gradientUnits="userSpaceOnUse"><stop offset="0.16" stop-color="#3a7cec"/><stop offset="1" stop-color="#3aa2ec"/></linearGradient></defs><path class="cls-1" d="M46.79,87.73A38.34,38.34,0,1,0,8.46,49.4,38.41,38.41,0,0,0,46.79,87.73Z"/><path class="cls-2" d="M77.75,15.92a18.28,18.28,0,0,1,5-8.9A19,19,0,0,1,89,2.83a20,20,0,0,1,14.34-.34,18.66,18.66,0,0,1,6.32,3.8,17.51,17.51,0,0,1,4.15,5.6,16.85,16.85,0,0,1,1.59,6.38,16.52,16.52,0,0,1-1,6.42A16.88,16.88,0,0,1,111,30.43a3,3,0,0,0-.48,3.22,3.18,3.18,0,0,0,1.14,1.3,3.36,3.36,0,0,0,1.69.52,25.17,25.17,0,0,1,9.21,2.24,24.45,24.45,0,0,1,7.38,5.19,23.16,23.16,0,0,1,4.84,7.37,22,22,0,0,1-.42,17.67,22.7,22.7,0,0,1-5.24,7.12,23.6,23.6,0,0,1-7.59,4.7,24.43,24.43,0,0,1-9.16,1.6,23.81,23.81,0,0,1-9-1.89A23,23,0,0,1,96,74.63a21.77,21.77,0,0,1-4.82-7,20.8,20.8,0,0,1-1.66-8.51,26.23,26.23,0,0,1,.28-3.31,45.39,45.39,0,0,0,.54-6.38A41.14,41.14,0,0,0,87,32.51a42.92,42.92,0,0,0-9.65-13.86,45.25,45.25,0,0,0-14.44-9.4,47.59,47.59,0,0,0-35.58-.06,45.15,45.15,0,0,0-14.48,9.4A42.4,42.4,0,0,0,3.2,32.5,38.84,38.84,0,0,0,4.3,65.84,40.44,40.44,0,0,0,28.82,86.16c29.08,6.71,17.26,1.14,2.21-5A38.28,38.28,0,0,1,20,73.37a35,35,0,0,1-7.34-10.89A32.76,32.76,0,0,1,10,49.39a32.34,32.34,0,0,1,2.81-13,33.65,33.65,0,0,1,7.49-10.64,35.47,35.47,0,0,1,11.11-7.23c.14-.09.88-.35,1.09-.43a37.14,37.14,0,0,1,26.35.19,35.71,35.71,0,0,1,11.38,7.11A34,34,0,0,1,78.08,36.1a32.65,32.65,0,0,1,3.09,13.29,37.88,37.88,0,0,1-.27,5.22,33.39,33.39,0,0,0-.24,4.47,28.64,28.64,0,0,0,2.7,11.67,29.66,29.66,0,0,0,6.91,9.37,31.07,31.07,0,0,0,10,6.15,31.77,31.77,0,0,0,12,2,31.16,31.16,0,0,0,11.8-2.58,29.82,29.82,0,0,0,9.41-6.41,28.3,28.3,0,0,0,6.12-9.22,26.74,26.74,0,0,0,2-11,26.21,26.21,0,0,0-2.55-10.52,27.16,27.16,0,0,0-6.2-8.41A28.49,28.49,0,0,0,124,34.58a28.8,28.8,0,0,0-10.6-2,.22.22,0,0,1-.11,0s-.06-.07-.08-.08a.25.25,0,0,1,0-.12s0-.11,0-.11a19.4,19.4,0,0,0,3.64-6.82,18.89,18.89,0,0,0-1.47-14.27,19.45,19.45,0,0,0-4.81-5.85,20.19,20.19,0,0,0-6.91-3.75,21,21,0,0,0-14.88.88,19.56,19.56,0,0,0-6.26,4.44A18.56,18.56,0,0,0,77.75,15.92Z"/><path class="cls-3" d="M168.28,84.48a35.31,35.31,0,0,1-13.84-13.12,36.23,36.23,0,0,1-5-19,36.24,36.24,0,0,1,5-19,35.31,35.31,0,0,1,13.84-13.12,44.12,44.12,0,0,1,36.52-1.47,33.42,33.42,0,0,1,12.56,9.35l-10.57,9.77a22.77,22.77,0,0,0-17.91-8.34,23.7,23.7,0,0,0-11.8,2.9A20.68,20.68,0,0,0,169,40.58a23.84,23.84,0,0,0-2.9,11.81,23.83,23.83,0,0,0,2.9,11.8,20.68,20.68,0,0,0,8.09,8.08,23.7,23.7,0,0,0,11.8,2.9,22.65,22.65,0,0,0,17.91-8.44l10.57,9.77A33,33,0,0,1,204.75,86,41.85,41.85,0,0,1,188,89.21,40.85,40.85,0,0,1,168.28,84.48Z"/><path class="cls-3" d="M227.33,12.51H243.2V88H227.33Z"/><path class="cls-3" d="M268.48,85.19a26.81,26.81,0,0,1-10.73-10,27.56,27.56,0,0,1-3.86-14.54,27.57,27.57,0,0,1,3.86-14.55,26.81,26.81,0,0,1,10.73-10A32.81,32.81,0,0,1,284,32.45a32.48,32.48,0,0,1,15.46,3.61,26.87,26.87,0,0,1,10.68,10A27.58,27.58,0,0,1,314,60.63a27.57,27.57,0,0,1-3.87,14.54,26.87,26.87,0,0,1-10.68,10A32.48,32.48,0,0,1,284,88.81,32.81,32.81,0,0,1,268.48,85.19ZM294,71.66q3.92-4.11,3.91-11t-3.91-11a13.2,13.2,0,0,0-10-4.12,13.36,13.36,0,0,0-10.07,4.12q-4,4.11-4,11t4,11A13.36,13.36,0,0,0,284,75.78,13.2,13.2,0,0,0,294,71.66Z"/><path class="cls-3" d="M379.73,33.26V88H364.67V81.48a20.86,20.86,0,0,1-7.53,5.44,23.57,23.57,0,0,1-9.46,1.89q-10.79,0-17.09-6.21t-6.31-18.41V33.26h15.87V61.85q0,13.21,11.09,13.22a11.92,11.92,0,0,0,9.16-3.71q3.45-3.72,3.46-11V33.26Z"/><path class="cls-3" d="M450.23,12.51V88H435.07V81.68q-5.91,7.13-17.09,7.13a28.47,28.47,0,0,1-14-3.46,24.8,24.8,0,0,1-9.82-9.87,30.1,30.1,0,0,1-3.56-14.85,30.17,30.17,0,0,1,3.56-14.86A24.72,24.72,0,0,1,404,35.91a28.37,28.37,0,0,1,14-3.46q10.47,0,16.38,6.61V12.51ZM430.69,71.66q4-4.11,4-11t-4-11a14.24,14.24,0,0,0-20,0q-4,4.11-4,11t4,11a14.24,14.24,0,0,0,20,0Z"/><path class="cls-4" d="M301.82,25.1a12.73,12.73,0,0,1-5-4.81,13.25,13.25,0,0,1-1.79-6.86,13.29,13.29,0,0,1,1.79-6.87,12.8,12.8,0,0,1,5-4.81,15.31,15.31,0,0,1,14.18,0,13,13,0,0,1,5,4.81,13.4,13.4,0,0,1,1.81,6.89A13.36,13.36,0,0,1,321,20.31a13,13,0,0,1-5,4.81,15.31,15.31,0,0,1-14.18,0ZM314.58,23a10.15,10.15,0,0,0,4-3.92,11.07,11.07,0,0,0,1.44-5.6,11,11,0,0,0-1.44-5.6,10.18,10.18,0,0,0-4-3.93,11.39,11.39,0,0,0-5.65-1.41,11.53,11.53,0,0,0-5.68,1.41,10.35,10.35,0,0,0-4,3.93,10.92,10.92,0,0,0-1.45,5.6,11,11,0,0,0,1.45,5.6,10.32,10.32,0,0,0,4,3.92,11.53,11.53,0,0,0,5.68,1.41A11.39,11.39,0,0,0,314.58,23Z"/><path class="cls-4" d="M333.83,7.65a9.7,9.7,0,0,1,4.63-1v2.6l-.65,0a6.34,6.34,0,0,0-4.9,1.92,7.69,7.69,0,0,0-1.77,5.4V26.63h-2.68V6.79H331v3.88A6.57,6.57,0,0,1,333.83,7.65Z"/><path class="cls-4" d="M359.33,8.81c1.47,1.44,2.21,3.55,2.21,6.31V26.63h-2.68V15.39a6.6,6.6,0,0,0-1.55-4.72,5.81,5.81,0,0,0-4.41-1.62A6.76,6.76,0,0,0,347.83,11,7.17,7.17,0,0,0,346,16.22V26.63h-2.68V6.79h2.57v3.66a7.41,7.41,0,0,1,3-2.81,9.7,9.7,0,0,1,4.51-1A8.09,8.09,0,0,1,359.33,8.81Z"/><path class="cls-4" d="M381.71,8.58a7.52,7.52,0,0,1,2.08,5.75v12.3h-2.57v-3.1A6.09,6.09,0,0,1,378.56,26a9.22,9.22,0,0,1-4.16.86,8.11,8.11,0,0,1-5.28-1.58,5.1,5.1,0,0,1-2-4.19A5.06,5.06,0,0,1,369,17c1.22-1,3.17-1.55,5.83-1.55h6.3v-1.2a5.13,5.13,0,0,0-1.43-3.91A5.94,5.94,0,0,0,375.49,9a10.52,10.52,0,0,0-3.62.63,9.16,9.16,0,0,0-3,1.71l-1.21-2a10.89,10.89,0,0,1,3.62-2,14.24,14.24,0,0,1,4.45-.69A8.42,8.42,0,0,1,381.71,8.58Zm-3,15.09a6.28,6.28,0,0,0,2.41-3V17.42h-6.22c-3.4,0-5.1,1.19-5.1,3.55a3.25,3.25,0,0,0,1.32,2.73,6,6,0,0,0,3.7,1A7.08,7.08,0,0,0,378.7,23.67Z"/><path class="cls-4" d="M401.51,25.42a5.09,5.09,0,0,1-1.86,1,7.81,7.81,0,0,1-2.32.35,5.83,5.83,0,0,1-4.3-1.5A5.77,5.77,0,0,1,391.52,21v-12H388V6.79h3.55V2.45h2.68V6.79h6V9.05h-6V20.89a3.77,3.77,0,0,0,.88,2.7,3.35,3.35,0,0,0,2.55.92,4.79,4.79,0,0,0,1.6-.26,4,4,0,0,0,1.34-.75Z"/><path class="cls-4" d="M422.94,17.54h-16.6a7.09,7.09,0,0,0,2.38,5,7.88,7.88,0,0,0,5.43,1.91,8.54,8.54,0,0,0,3.39-.66,7.44,7.44,0,0,0,2.68-1.94l1.51,1.73a8.42,8.42,0,0,1-3.3,2.41,11.89,11.89,0,0,1-9.77-.47,9.3,9.3,0,0,1-3.68-3.6,10.36,10.36,0,0,1-1.32-5.2,10.69,10.69,0,0,1,1.27-5.21,9.12,9.12,0,0,1,3.47-3.58,10.21,10.21,0,0,1,9.9,0,9,9,0,0,1,3.43,3.56A10.78,10.78,0,0,1,423,16.71Zm-14.39-6.77a7.18,7.18,0,0,0-2.21,4.77h14.07a7.18,7.18,0,0,0-2.21-4.77,7.28,7.28,0,0,0-9.65,0Z"/></svg>